<?xml version="1.0" encoding="UTF-8" standalone="no"?>
<svg
   width="435pt"
   height="522pt"
   viewBox="0 0 434.99999 521.99997"
   version="1.1"
   id="svg50"
   sodipodi:docname="ak-parti-logo_00001.svg"
   inkscape:version="1.2.1 (9c6d41e410, 2022-07-14)"
   xmlns:inkscape="http://www.inkscape.org/namespaces/inkscape"
   xmlns:sodipodi="http://sodipodi.sourceforge.net/DTD/sodipodi-0.dtd"
   xmlns="http://www.w3.org/2000/svg"
   xmlns:svg="http://www.w3.org/2000/svg">
  <defs
     id="defs54" />
  <sodipodi:namedview
     id="namedview52"
     pagecolor="#ffffff"
     bordercolor="#000000"
     borderopacity="0.25"
     inkscape:showpageshadow="2"
     inkscape:pageopacity="0.0"
     inkscape:pagecheckerboard="0"
     inkscape:deskcolor="#d1d1d1"
     inkscape:document-units="pt"
     showgrid="false"
     inkscape:zoom="1"
     inkscape:cx="290"
     inkscape:cy="374.5"
     inkscape:window-width="1440"
     inkscape:window-height="838"
     inkscape:window-x="-8"
     inkscape:window-y="-8"
     inkscape:window-maximized="1"
     inkscape:current-layer="svg50" />
  <g
     id="surface1"
     transform="translate(-203.44531,-36.640625)">
    <path
       style="fill:#211e1e;fill-opacity:1;fill-rule:evenodd;stroke:none"
       d="m 266.67187,558.64062 3.13672,-9.40625 h 19.51953 l 3.19922,9.40625 h 15.0586 l -18.98828,-48.16796 h -16.26172 l -18.98828,48.16796 z m 6.53125,-18.74609 6.53516,-20.01562 h 0.19531 l 6.12891,20.01562 z m 0,0"
       id="path29" />
    <path
       style="fill:#211e1e;fill-opacity:1;fill-rule:nonzero;stroke:none"
       d="m 326.90625,531.62109 h -0.13281 v -21.14453 h -13.32422 v 48.16406 h 13.32422 v -25.61718 h 0.13281 l 15.85937,25.61718 h 16.52735 l -17.92188,-26.95312 16.58985,-21.21094 h -15.79297 z m 0,0"
       id="path31" />
    <path
       style="fill:#211e1e;fill-opacity:1;fill-rule:evenodd;stroke:none"
       d="m 400.40234,558.64062 v -17.21093 h 8.79688 c 11.79687,0 19.52344,-3.80469 19.52344,-15.47657 0,-11.67578 -7.72657,-15.48046 -19.52344,-15.48046 h -22.1211 v 48.16796 z m 0,-26.55468 v -12.26953 h 6.86328 c 5.26563,0.19921 7.46094,2.59765 7.46094,6.13671 0,3.53516 -2.19531,5.9375 -7.46094,6.13282 h -6.86328"
       id="path33" />
    <path
       style="fill:#211e1e;fill-opacity:1;fill-rule:evenodd;stroke:none"
       d="m 436.95312,558.64062 3.13282,-9.40625 h 19.52734 l 3.19531,9.40625 h 15.0586 l -18.98828,-48.16796 h -16.26172 l -18.98828,48.16796 z m 6.53125,-18.74609 6.53125,-20.01562 h 0.20313 l 6.12891,20.01562 z m 0,0"
       id="path35" />
    <path
       style="fill:#211e1e;fill-opacity:1;fill-rule:evenodd;stroke:none"
       d="m 496.12891,530.88672 v -11.07031 h 5.1914 c 4.26953,0 8.39453,0.60156 8.39453,5.53515 0,4.9336 -4.125,5.53516 -8.39453,5.53516 z m 0,9.33984 h 4.99218 c 6.79688,0 7.06641,2.40235 7.59766,8.20703 0.33594,3.39844 0.73437,6.8711 1.46875,10.20703 h 14.45703 c -1.13281,-3.87109 -1.87109,-7.67187 -2.19922,-11.67578 -0.86719,-7.47265 -2.46484,-11.80859 -10.99609,-12.0039 v -0.26953 c 6.73047,-0.80469 12.26172,-4.60157 12.26172,-11.8086 0,-10.20703 -10.52735,-12.41015 -18.65625,-12.41015 h -22.25391 v 48.16796 h 13.32813 v -18.41406"
       id="path37" />
    <path
       style="fill:#211e1e;fill-opacity:1;fill-rule:nonzero;stroke:none"
       d="m 541.96875,558.64062 h 13.32422 v -38.82421 h 15.0625 v -9.34375 h -43.11719 v 9.34375 h 14.73047 z m 0,0"
       id="path39" />
    <path
       style="fill:#211e1e;fill-opacity:1;fill-rule:evenodd;stroke:none"
       d="m 588.47656,525.14844 h -12.66015 v 33.49218 h 12.66015 z m 0.0703,-14.67578 H 575.75 v 8.9375 h 12.79687 z m 0,0"
       id="path41" />
    <path
       style="fill:#f89719;fill-opacity:1;fill-rule:nonzero;stroke:none"
       d="m 381.20312,264.60547 c -0.57421,-0.92969 -1.27343,-1.69922 -1.99609,-2.51172 8.32031,-3.28125 14.83594,-3.19922 23.34375,-0.72656 L 410.77734,282.5 c -0.63281,0.98437 -1.01172,1.83203 -1.01172,3.03516 0,3.42578 3.04297,5.11718 5.83204,5.82812 v 50.05078 h -2.08204 l -1.18359,0.0508 -30.64453,-75.97265 c 0,0 -0.17969,-0.39063 -0.48438,-0.88672 m 39.6875,18.10547 h 4.17188 c 2.37109,0 3.97656,1.67187 3.97656,2.82422 0,1.15625 -1.60547,2.82421 -3.97656,2.82421 h -1.85547 v 56.14454 h 5.19141 c 1.90625,0 3.44922,1.54296 3.44922,3.45312 v 43.60938 h -21.80469 v -43.60938 c 0,-1.91016 1.53906,-3.45312 3.4414,-3.45312 h 5.19532 v -56.14454 h -1.85157 c -2.375,0 -3.98046,-1.66796 -3.98046,-2.82421 0,-1.15235 1.60546,-2.82422 3.98046,-2.82422 z m 0.80469,-124.66016 c 53.60547,0 97.0586,43.50391 97.0586,97.16797 0,31.70312 -15.11329,55.9375 -38.47266,77.47656 -9.71094,9.71875 -25.79297,30.60156 -25.79297,58.05469 v 0.81641 h -19.55859 v -43.60938 c 0,-2.24219 -0.96875,-3.78125 -2.5625,-5.23047 l 30.63672,-75.95703 c 0.66796,-1.35547 2.23828,-3.32422 4.21875,-3.50781 1.375,-1.31641 0.14453,-2.57031 -1.17969,-3.01953 -7.86328,-4.25782 -19.28516,-4.49219 -27.60938,-2.30078 -5.33984,-2.51172 -11.39843,-4.26172 -17.4375,-4.44922 -6.14453,0.1875 -12.19922,1.93359 -17.54297,4.44922 -8.32421,-2.19141 -19.74609,-1.95704 -27.60546,2.30078 -1.33204,0.44922 -2.5625,1.70312 -1.1875,3.01953 1.98437,0.18359 3.55468,2.15234 4.22265,3.50781 l 30.63672,75.95703 c -1.59375,1.44922 -2.5625,2.98828 -2.5625,5.23047 v 43.60938 H 387.39844 V 390.75 c 0,-27.45313 -16.08203,-48.33594 -25.79297,-58.05469 -23.35938,-21.53906 -38.47266,-45.77344 -38.47266,-77.47656 0,-53.66406 43.45313,-97.16797 97.0586,-97.16797 z m 38.98828,106.55469 c -0.30468,0.49609 -0.48437,0.88672 -0.48437,0.88672 l -30.64844,75.97265 -1.17969,-0.0508 h -2.07812 v -50.05078 c 2.78515,-0.71094 5.82812,-2.40234 5.82812,-5.82812 0,-1.20313 -0.38281,-2.05079 -1.01172,-3.03516 l 8.22657,-21.13281 c 8.50781,-2.47266 15.01953,-2.55469 23.33984,0.72656 -0.71875,0.8125 -1.41797,1.58203 -1.99219,2.51172 M 425.0625,279.625 h -8.23438 c -1.28125,0 -2.36718,0.38281 -3.53906,0.82812 l -7.79297,-20.03515 c 4.96875,-2.10156 10.1875,-3.65235 15.39453,-3.85547 5.3125,0.20312 10.53125,1.75 15.5,3.85547 l -7.79296,20.03515 c -1.17188,-0.44531 -2.25782,-0.82812 -3.53516,-0.82812"
       id="path43" />
    <path
       style="fill:#f89719;fill-opacity:1;fill-rule:nonzero;stroke:none"
       d="m 546.85156,240.95703 91.59375,13.44141 -91.42578,13.42187 c 0.41797,-4.08984 0.62891,-8.28515 0.62891,-12.59765 0,-4.82813 -0.26953,-9.58204 -0.79688,-14.26563 m 27.88672,-140.53906 -55.63672,74.88672 c -5.75781,-7.02344 -12.25781,-13.41016 -19.38281,-19.04688 z m -167.41016,29.39062 13.61719,-93.167965 13.875,93.191405 c -4.32031,-0.44922 -8.70703,-0.67969 -13.14453,-0.67969 h -1.46484 c -4.35157,0 -8.64844,0.21875 -12.88282,0.65625 m -84.47656,45.41407 -55.70312,-74.80469 74.98047,55.87109 c -7.08204,5.60547 -13.54688,11.95313 -19.27735,18.9336 m -27.98047,92.59375 -91.42578,-13.41797 91.58985,-13.44141 c -0.52735,4.68359 -0.79688,9.4375 -0.79688,14.26563 0,4.3125 0.21484,8.50781 0.63281,12.59375 m 46.33985,85.375 -74.0625,55.18359 55.58593,-74.92578 c 5.63672,7.03125 11.8711,13.58984 18.47657,19.74219 m 177.8789,-19.66797 55.64844,74.85156 -73.93359,-55.30469 c 6.53906,-6.09375 12.70312,-12.58984 18.28515,-19.54687"
       id="path45" />
    <path
       style="fill:#211e1e;fill-opacity:1;fill-rule:nonzero;stroke:none"
       d="m 528.38672,255.21875 c 0,-58.97266 -47.77344,-106.80469 -106.71094,-106.80469 h -1.46484 c -58.9336,0 -106.70703,47.83203 -106.70703,106.80469 0,35.24609 16.96875,61.82422 41.42187,84.42187 8.95313,9.00391 22.84375,27.4961 22.84375,51.10547 v 10.44141 h 86.35156 v -10.44141 c 0,-23.60937 13.89063,-42.10547 22.84375,-51.10547 24.45313,-22.59765 41.42188,-49.17578 41.42188,-84.42187 m -54.61328,166.86719 -105.79297,21.90625 v -15.07032 l 72.00781,-15.22656 h -72.00781 v -22.94922 c 0,-19.79297 -11.56641,-35.90625 -19.7461,-44.17968 -25.54687,-23.65235 -44.36328,-52.57032 -44.36328,-91.34766 0,-64.28516 52.07813,-116.43359 116.33985,-116.43359 h 1.46484 c 64.26953,0 116.34375,52.14843 116.34375,116.43359 0,38.77734 -18.82031,67.69531 -44.36328,91.34766 -8.17969,8.27343 -19.88281,24.38671 -19.88281,44.17968 z m 0,7.625 v 15.07031 l -105.79297,21.90234 v -15.0664 z m 0,22.60937 v 14.9336 l -20.88282,4.39062 -7.63671,13.04297 h -48.75782 l -8.2539,-14.53516 85.53125,-17.83203"
       id="path47" />
  </g>
</svg>
