<svg xmlns="http://www.w3.org/2000/svg" viewBox="0 0 175.071 175.071">
  <defs>
    <style>
      .cls-1 {
        fill: #4bb3e5;
      }

      .cls-2 {
        fill: #ffdb00;
      }

      .cls-3 {
        fill: #fff;
      }
    </style>
  </defs>
  <g id="Layer_2" data-name="Layer 2">
    <g id="Layer_1-2" data-name="Layer 1">
      <g>
        <path class="cls-1" d="M128.712,143.931a5.579,5.579,0,0,0-1.921-4.265,6.649,6.649,0,0,0-4.654-1.759h-6.575v12.048h6.575a6.644,6.644,0,0,0,4.654-1.759,5.577,5.577,0,0,0,1.921-4.265"/>
        <path class="cls-1" d="M160.867,0H14.2A14.247,14.247,0,0,0,0,14.205V160.867a14.245,14.245,0,0,0,14.2,14.2H160.867a14.245,14.245,0,0,0,14.2-14.2V14.205A14.247,14.247,0,0,0,160.867,0M144.738,67.351a4.455,4.455,0,0,1-4.442,4.442h-13.32a4.443,4.443,0,0,1,0-8.885H140.3a4.455,4.455,0,0,1,4.442,4.443M112.171,36.263l9.419-9.419a4.442,4.442,0,1,1,6.283,6.282l-9.419,9.419a4.442,4.442,0,0,1-6.283-6.282m-29.366-22a4.442,4.442,0,1,1,8.884,0V27.579a4.442,4.442,0,1,1-8.884,0Zm4.443,24.573a28.519,28.519,0,1,1-20.165,8.353,28.332,28.332,0,0,1,20.165-8.353m4.441,68.2v13.32a4.442,4.442,0,1,1-8.884,0v-13.32a4.442,4.442,0,1,1,8.884,0M46.642,26.7a4.457,4.457,0,0,1,6.283,0l9.419,9.419a4.456,4.456,0,0,1,0,6.282h0a4.455,4.455,0,0,1-6.283,0L46.642,32.98a4.457,4.457,0,0,1,0-6.283M34.2,62.908H47.519a4.443,4.443,0,0,1,0,8.885H34.2a4.443,4.443,0,0,1,0-8.885m-19,99.546a2.558,2.558,0,0,1-.769,1.818,2.53,2.53,0,0,1-3.588,0,2.471,2.471,0,0,1-.744-1.818V137.536a2.475,2.475,0,0,1,.744-1.818,2.535,2.535,0,0,1,3.588,0,2.562,2.562,0,0,1,.769,1.818Zm-.439-30.267a3,3,0,0,1-4.247,0,3,3,0,0,1,2.123-5.126,3,3,0,0,1,2.124,5.126m27.607,7.131-8.846,9.6v13.535a2.558,2.558,0,0,1-.769,1.818,2.53,2.53,0,0,1-3.588,0,2.471,2.471,0,0,1-.744-1.818V148.919l-8.846-9.6a2.474,2.474,0,0,1-.76-1.812,2.535,2.535,0,0,1,2.537-2.537,2.568,2.568,0,0,1,1.83.742l7.79,8.545,7.789-8.545a2.567,2.567,0,0,1,1.829-.742,2.539,2.539,0,0,1,1.778,4.349m9.175,23.136a2.558,2.558,0,0,1-.769,1.818,2.53,2.53,0,0,1-3.588,0,2.471,2.471,0,0,1-.744-1.818V137.536a2.475,2.475,0,0,1,.744-1.818,2.535,2.535,0,0,1,3.588,0,2.562,2.562,0,0,1,.769,1.818Zm-.439-30.267a3,3,0,1,1,.879-2.123,2.894,2.894,0,0,1-.879,2.123M62.269,98.729l-9.419,9.419a4.442,4.442,0,1,1-6.282-6.282l9.418-9.419a4.442,4.442,0,1,1,6.283,6.282m10.875,55.745H69.8v-3.012h3.34a7.471,7.471,0,0,0,5.23-1.986,6.382,6.382,0,0,0,0-9.584,7.471,7.471,0,0,0-5.23-1.986H68.212v25.6a1.39,1.39,0,0,1-.483,1.064,1.742,1.742,0,0,1-2.321,0,1.393,1.393,0,0,1-.483-1.064V136.4a1.391,1.391,0,0,1,.483-1.063,1.656,1.656,0,0,1,1.161-.442h6.575a10.783,10.783,0,0,1,7.551,2.871,9.2,9.2,0,0,1,0,13.838,10.783,10.783,0,0,1-7.551,2.871m35.368,10.1a1.742,1.742,0,0,1-2.311.009,1.571,1.571,0,0,1-.37-.489l-4.089-9.621H89.948L85.859,164.1a1.738,1.738,0,0,1-.35.489,1.716,1.716,0,0,1-1.171.434,1.659,1.659,0,0,1-1.161-.443,1.44,1.44,0,0,1-.339-1.7l11.424-26.923a1.586,1.586,0,0,1,.432-.622,1.645,1.645,0,0,1,1.151-.432,1.719,1.719,0,0,1,1.171.432,1.671,1.671,0,0,1,.411.622l11.425,26.923a1.439,1.439,0,0,1-.34,1.7M112.246,92.3a4.454,4.454,0,0,1,6.282,0l9.419,9.419A4.442,4.442,0,0,1,121.665,108l-9.419-9.419a4.456,4.456,0,0,1,0-6.282m20.915,72.273a1.659,1.659,0,0,1-1.161.443,1.7,1.7,0,0,1-1.438-.773l-7.706-11.3q-.349.019-.719.019h-6.575v10.543a1.4,1.4,0,0,1-.483,1.064,1.743,1.743,0,0,1-2.322,0,1.393,1.393,0,0,1-.483-1.064V136.4a1.391,1.391,0,0,1,.483-1.063,1.656,1.656,0,0,1,1.161-.442h8.219a9.957,9.957,0,0,1,6.976,2.645,8.517,8.517,0,0,1,.01,12.773,9.745,9.745,0,0,1-2.9,1.865l7.15,10.506a1.339,1.339,0,0,1,.268.828,1.4,1.4,0,0,1-.483,1.064m24.392-27.111a1.662,1.662,0,0,1-1.16.442h-9.041v25.6a1.4,1.4,0,0,1-.483,1.064,1.743,1.743,0,0,1-2.322,0,1.393,1.393,0,0,1-.483-1.064v-25.6h-9.041a1.663,1.663,0,0,1-1.161-.442,1.413,1.413,0,0,1,0-2.128,1.658,1.658,0,0,1,1.161-.442h21.37a1.657,1.657,0,0,1,1.16.442,1.412,1.412,0,0,1,0,2.128m7.323,26.047a1.4,1.4,0,0,1-.482,1.064,1.744,1.744,0,0,1-2.323,0,1.4,1.4,0,0,1-.482-1.064V136.4a1.393,1.393,0,0,1,.482-1.063,1.747,1.747,0,0,1,2.323,0,1.393,1.393,0,0,1,.482,1.063Zm.1-31.554a2.647,2.647,0,0,1-3.493,0,2.141,2.141,0,0,1,0-3.2,2.644,2.644,0,0,1,3.493,0,2.141,2.141,0,0,1,0,3.2"/>
        <polygon class="cls-1" points="91.222 151.462 100.469 151.462 95.845 140.561 91.222 151.462"/>
        <path class="cls-2" d="M67.083,87.515A28.515,28.515,0,1,0,58.73,67.351a28.332,28.332,0,0,0,8.353,20.164"/>
        <path class="cls-2" d="M87.248,32.021a4.455,4.455,0,0,0,4.442-4.442V14.259a4.442,4.442,0,1,0-8.884,0v13.32a4.455,4.455,0,0,0,4.442,4.442"/>
        <path class="cls-2" d="M82.805,107.037v13.32a4.442,4.442,0,1,0,8.884,0v-13.32a4.442,4.442,0,1,0-8.884,0"/>
        <path class="cls-2" d="M122.534,67.35a4.455,4.455,0,0,0,4.442,4.442H140.3a4.442,4.442,0,1,0,0-8.884H126.976a4.456,4.456,0,0,0-4.442,4.442"/>
        <path class="cls-2" d="M34.2,71.793h13.32a4.443,4.443,0,1,0,0-8.885H34.2a4.443,4.443,0,0,0,0,8.885"/>
        <path class="cls-2" d="M127.947,108a4.454,4.454,0,0,0,0-6.282L118.528,92.3a4.442,4.442,0,0,0-6.282,6.282L121.665,108a4.454,4.454,0,0,0,6.282,0"/>
        <path class="cls-2" d="M56.061,42.4a4.455,4.455,0,0,0,6.283,0h0a4.456,4.456,0,0,0,0-6.282L52.925,26.7a4.443,4.443,0,0,0-6.283,6.283Z"/>
        <path class="cls-2" d="M62.269,92.447a4.454,4.454,0,0,0-6.282,0l-9.419,9.419a4.442,4.442,0,1,0,6.283,6.282l9.418-9.419A4.454,4.454,0,0,0,62.269,92.447Z"/>
        <path class="cls-2" d="M118.454,42.545l9.419-9.419a4.442,4.442,0,1,0-6.282-6.282l-9.419,9.419a4.442,4.442,0,1,0,6.282,6.282"/>
        <path class="cls-3" d="M12.639,127.061a3,3,0,1,0,2.124,5.127,3,3,0,0,0-2.124-5.127"/>
        <path class="cls-3" d="M12.639,134.974a2.445,2.445,0,0,0-1.794.744,2.473,2.473,0,0,0-.744,1.819v24.917a2.47,2.47,0,0,0,.744,1.819,2.533,2.533,0,0,0,3.588,0,2.564,2.564,0,0,0,.769-1.819V137.537a2.568,2.568,0,0,0-.769-1.819,2.447,2.447,0,0,0-1.794-.744"/>
        <path class="cls-3" d="M48.982,127.061a3,3,0,1,0,2.124.879,2.894,2.894,0,0,0-2.124-.879"/>
        <path class="cls-3" d="M48.982,134.974a2.445,2.445,0,0,0-1.794.744,2.474,2.474,0,0,0-.745,1.819v24.917a2.471,2.471,0,0,0,.745,1.819,2.533,2.533,0,0,0,3.588,0,2.564,2.564,0,0,0,.769-1.819V137.537a2.568,2.568,0,0,0-.769-1.819,2.448,2.448,0,0,0-1.794-.744"/>
        <path class="cls-3" d="M40.592,134.969a2.57,2.57,0,0,0-1.83.742l-7.789,8.545-7.789-8.545a2.57,2.57,0,0,0-1.83-.742,2.533,2.533,0,0,0-2.537,2.537,2.479,2.479,0,0,0,.759,1.813l8.847,9.6v13.535a2.474,2.474,0,0,0,.744,1.819,2.533,2.533,0,0,0,3.588,0,2.56,2.56,0,0,0,.769-1.819V148.919l8.846-9.6a2.476,2.476,0,0,0,.759-1.813,2.533,2.533,0,0,0-2.537-2.537"/>
        <path class="cls-3" d="M97.427,135.948a1.671,1.671,0,0,0-.411-.622,1.717,1.717,0,0,0-1.171-.432,1.646,1.646,0,0,0-1.151.432,1.583,1.583,0,0,0-.431.622L82.838,162.871a1.4,1.4,0,0,0-.143.64,1.39,1.39,0,0,0,.483,1.064,1.655,1.655,0,0,0,1.161.443,1.584,1.584,0,0,0,1.52-.923l4.089-9.621h11.8l4.088,9.621a1.559,1.559,0,0,0,.37.489,1.642,1.642,0,0,0,1.151.434,1.659,1.659,0,0,0,1.161-.443,1.44,1.44,0,0,0,.339-1.7Zm-6.205,15.514,4.623-10.9,4.624,10.9Z"/>
        <path class="cls-3" d="M126.226,152.177a9.733,9.733,0,0,0,2.9-1.865,8.517,8.517,0,0,0-.01-12.773,9.958,9.958,0,0,0-6.976-2.646h-8.219a1.659,1.659,0,0,0-1.161.443,1.391,1.391,0,0,0-.483,1.063v27.112a1.393,1.393,0,0,0,.483,1.064,1.743,1.743,0,0,0,2.322,0,1.393,1.393,0,0,0,.483-1.064V152.968h6.575c.247,0,.486-.006.719-.019l7.706,11.3a1.7,1.7,0,0,0,1.438.773,1.659,1.659,0,0,0,1.161-.443,1.393,1.393,0,0,0,.483-1.064,1.345,1.345,0,0,0-.267-.828Zm-4.089-2.222h-6.575V137.906h6.575a6.645,6.645,0,0,1,4.654,1.76,5.694,5.694,0,0,1,0,8.529,6.641,6.641,0,0,1-4.654,1.76"/>
        <path class="cls-3" d="M156.393,134.893h-21.37a1.654,1.654,0,0,0-1.16.442,1.415,1.415,0,0,0,0,2.129,1.663,1.663,0,0,0,1.16.442h9.041v25.6a1.4,1.4,0,0,0,.483,1.066,1.749,1.749,0,0,0,2.322,0,1.4,1.4,0,0,0,.483-1.066v-25.6h9.041a1.667,1.667,0,0,0,1.161-.442,1.415,1.415,0,0,0,0-2.129,1.658,1.658,0,0,0-1.161-.442"/>
        <path class="cls-3" d="M163.232,134.893a1.658,1.658,0,0,0-1.161.442,1.4,1.4,0,0,0-.483,1.064V163.51a1.4,1.4,0,0,0,.483,1.066,1.749,1.749,0,0,0,2.322,0,1.4,1.4,0,0,0,.483-1.066V136.4a1.4,1.4,0,0,0-.483-1.064,1.658,1.658,0,0,0-1.161-.442"/>
        <path class="cls-3" d="M163.232,128.1a2.5,2.5,0,0,0-1.747.659,2.143,2.143,0,0,0,0,3.2,2.645,2.645,0,0,0,3.494,0,2.141,2.141,0,0,0,0-3.2,2.5,2.5,0,0,0-1.747-.659"/>
        <path class="cls-3" d="M80.695,137.765a10.784,10.784,0,0,0-7.552-2.871H66.569a1.655,1.655,0,0,0-1.161.442,1.394,1.394,0,0,0-.484,1.064v27.111a1.4,1.4,0,0,0,.484,1.065,1.744,1.744,0,0,0,2.321,0,1.4,1.4,0,0,0,.483-1.065v-25.6h4.931a7.472,7.472,0,0,1,5.23,1.985,6.38,6.38,0,0,1,0,9.584,7.469,7.469,0,0,1-5.23,1.986H69.8v3.012h3.339a10.784,10.784,0,0,0,7.552-2.871,9.2,9.2,0,0,0,0-13.838"/>
      </g>
    </g>
  </g>
</svg>
