<svg xmlns="http://www.w3.org/2000/svg" viewBox="0 0 72.7 72.7"><defs><style>.cls-1{fill:#ed1c24;}.cls-2{fill:#fff;}</style></defs><g id="Layer_2" data-name="Layer 2"><g id="Layer_1-2" data-name="Layer 1"><path class="cls-1" d="M0,36.35A36.35,36.35,0,1,1,36.35,72.7h0A36.34,36.34,0,0,1,0,36.36H0"/><path class="cls-2" d="M2.36,36.35a34,34,0,1,1,34,34h0a34,34,0,0,1-34-34m1.18,0a32.8,32.8,0,1,0,32.8-32.8h0a32.81,32.81,0,0,0-32.8,32.8h0"/><path class="cls-2" d="M41.36,36.32A12,12,0,0,1,63.5,30a9.52,9.52,0,1,0-.79,13.44,9.81,9.81,0,0,0,.79-.79,12,12,0,0,1-22.14-6.33"/><path class="cls-2" d="M16.63,50.68a12,12,0,0,1,22.14-6.33A9.52,9.52,0,1,0,38,57.79a8.2,8.2,0,0,0,.78-.78,12,12,0,0,1-22.14-6.33"/><path class="cls-2" d="M16.63,22a12,12,0,0,1,22.14-6.33A9.52,9.52,0,1,0,38,29.12a9.81,9.81,0,0,0,.79-.79A12,12,0,0,1,16.63,22"/></g></g></svg>